# xmcd CD database file
#
# Track frame offsets:
#	150
#	16393
#	26470
#	39433
#	54220
#	65428
#	79498
#	93130
#	106088
#	115900
#	130750
#	146063
#	158213
#	173123
#	184133
#	196763
#	212978
#	226388
#	241028
#	257005
#	272333
#	286705
#	304078
#
# Disc length: 4189 seconds
#
# Revision: 0
# Processed by: cddbd v1.5.1PL2 Copyright (c) Steve Scherf et al.
# Submitted via: CDex 1.51
#
DISCID=2d105b17
DTITLE=Rock In Box Series 6. - The Best of Lorne Green 
DYEAR=1900
DGENRE=Country
TTITLE0=Don Robertson, Hal Blair - Ringo
TTITLE1=Don Robertson, Hal Blair - Sand
TTITLE2=Max Rich - An Ol' Tin Cup
TTITLE3=Ken Darby - Endless Prairie
TTITLE4=Stan Jones - Ghost Riders in the Sky
TTITLE5=Larry Fotine, Frank Stanton - Blue Guitar
TTITLE6=Wally Gold, David Hill - Five Cards Stup
TTITLE7=Bob Nolan - Cool Water
TTITLE8=Hal Blair, William Liebert - The Devil's Grin
TTITLE9=Billy Hill, Peter DeRose - Wagon Wheels
TTITLE10=Hal Blair, William Liebert - Frightened Town
TTITLE11=Billy Sherill, Glenn Sutton - Shadow of the Cactus
TTITLE12=John Black, Ramsey Lewis, Joe Kerr - The Search
TTITLE13=Sidney O. Mitchell, Louis Alter - Twilight on the Trail
TTITLE14=Max Rich - Geronimo
TTITLE15=Mitchell Tableporter - I'ma Gun
TTITLE16=Don Robertson, Hal Blair - Destiny
TTITLE17=Merle Travis - Sixteen Tons
TTITLE18=Merle Kilgore - Trouble Now
TTITLE19=Max Bryant, Dave Bryant - Darling My Darling
TTITLE20=Merle Kilgore - The Man
TTITLE21=Don Robertson, Hal Blair - Ringo (French)
TTITLE22=Don Robertson, Hal Blair - Sand (French)
EXTD=
EXTT0=
EXTT1=
EXTT2=
EXTT3=
EXTT4=
EXTT5=
EXTT6=
EXTT7=
EXTT8=
EXTT9=
EXTT10=
EXTT11=
EXTT12=
EXTT13=
EXTT14=
EXTT15=
EXTT16=
EXTT17=
EXTT18=
EXTT19=
EXTT20=
EXTT21=
EXTT22=
PLAYORDER=
